<?xml version="1.0" encoding="UTF-8" standalone="no" ?>
<!DOCTYPE svg PUBLIC "-//W3C//DTD SVG 1.1//EN" "http://www.w3.org/Graphics/SVG/1.1/DTD/svg11.dtd">
<svg xmlns="http://www.w3.org/2000/svg" xmlns:xlink="http://www.w3.org/1999/xlink" version="1.1" width="436.9784375" height="139.28" xml:space="preserve">
<desc>Created with Fabric.js 1.6.0-rc.1</desc>
<defs></defs>
<g style="stroke: none; stroke-width: 1; stroke-dasharray: none; stroke-linecap: butt; stroke-linejoin: miter; stroke-miterlimit: 10; fill: none; fill-rule: nonzero; opacity: 1;" transform="translate(9.999999999999993 9.999999999999993) scale(0.24 0.24)" >
  <circle cx="352" cy="232" r="88" style="stroke: none; stroke-width: 1; stroke-dasharray: none; stroke-linecap: butt; stroke-linejoin: miter; stroke-miterlimit: 10; fill: #ed9a00; fill-rule: nonzero; opacity: 1;" transform="  matrix(1 0 0 1 0 0) "/>
  <path d="M 476.08 304.769 c 13.296 -22.704 20.416 -48.808 19.896 -75.616 c -0.48 -24.928 -8.08 -48.544 -20.688 -69.128 l 10.088 -10.088 c 6.848 -6.848 10.624 -15.96 10.624 -25.656 c 0 -20.008 -16.272 -36.28 -36.28 -36.28 c -7.112 0 -13.896 2.072 -19.72 5.856 V 78.833 c 0 -12.2 -6.784 -23.168 -17.688 -28.624 L 333.968 6.041 c -7.912 -3.952 -16.76 -6.04 -25.584 -6.04 c -15.064 0 -29.808 6.112 -40.456 16.76 l -3.168 3.168 C 254.112 30.577 248 45.321 248 60.385 v 27.616 H 0 v 71.288 l 198.224 18.448 c 4.648 0.432 8.696 2.752 11.392 6.536 c 2.784 3.912 3.704 8.88 2.528 13.64 c -4.864 19.688 -5.464 39.968 -1.76 60.272 c 3.056 16.8 9.104 32.504 17.432 46.672 l -9.2 9.2 c -6.84 6.856 -10.616 15.968 -10.616 25.664 c 0 20.008 16.272 36.28 36.28 36.28 c 9.696 0 18.808 -3.776 25.656 -10.624 l 9.216 -9.216 c 17.704 10.408 37.712 17.208 59.04 19.2 c 1.936 0.176 3.872 0.168 5.808 0.272 v 56.368 c 0 26.472 -21.528 48 -48 48 h -88 c -26.472 0 -48 -21.528 -48 -48 v -160 c 0 -35.288 -28.712 -64 -64 -64 s -64 28.712 -64 64 v 104.808 c -18.232 3.72 -32 19.88 -32 39.192 v 56 h 8 v 24 h 16 v -24 h 32 v 24 h 16 v -24 h 8 v -56 c 0 -19.312 -13.768 -35.472 -32 -39.192 V 272.001 c 0 -26.472 21.528 -48 48 -48 s 48 21.528 48 48 v 160 c 0 35.288 28.712 64 64 64 h 88 c 35.288 0 64 -28.712 64 -64 v -56.408 c 22.92 -1.32 45.104 -8.016 64.768 -19.52 l 9.296 9.296 c 6.848 6.856 15.96 10.632 25.656 10.632 c 20.008 0 36.28 -16.272 36.28 -36.28 c 0 -9.696 -3.776 -18.808 -10.624 -25.656 L 476.08 304.769 z M 64 416.001 v 40 H 16 v -40 c 0 -13.232 10.768 -24 24 -24 S 64 402.769 64 416.001 z M 459.72 104.001 c 11.176 0 20.28 9.104 20.28 20.28 c 0 5.424 -2.112 10.512 -5.936 14.344 l -8.048 8.048 c -8.288 -10.696 -18.016 -20.288 -28.904 -28.472 l 8.264 -8.264 C 449.2 106.113 454.296 104.001 459.72 104.001 z M 264 60.385 c 0 -10.848 4.4 -21.472 12.072 -29.144 l 3.168 -3.168 c 12.168 -12.168 32.168 -15.408 47.568 -7.72 l 88.344 44.168 c 5.456 2.728 8.848 8.216 8.848 14.312 v 29.848 l -0.448 0.448 c -10.336 -6.168 -21.376 -11.248 -33.032 -14.8 c -2.752 -8.816 -9.216 -16.192 -18.016 -19.96 l -38.792 -16.632 c -2.704 -1.152 -5.568 -1.736 -8.52 -1.736 h -7.536 c -5.784 0 -11.216 2.248 -15.312 6.344 S 296 71.873 296 77.657 v 10.344 h -32 V 60.385 z M 366.552 89.289 c -5.968 -0.76 -12 -1.288 -18.128 -1.288 H 312 V 77.657 c 0 -1.504 0.584 -2.928 1.656 -4 s 2.496 -1.656 4 -1.656 h 7.536 c 0.776 0 1.528 0.16 2.232 0.456 l 38.784 16.624 C 366.336 89.137 366.432 89.233 366.552 89.289 z M 16 104.001 h 144 v 54.104 L 16 144.713 V 104.001 z M 258.624 354.065 c -3.824 3.824 -8.92 5.936 -14.344 5.936 c -11.176 0 -20.28 -9.104 -20.28 -20.28 c 0 -5.424 2.112 -10.512 5.936 -14.344 l 6.944 -6.944 c 8.176 10.872 17.824 20.536 28.68 28.696 L 258.624 354.065 z M 226.128 255.329 c -3.288 -18.08 -2.768 -36.104 1.552 -53.576 c 2.288 -9.288 0.464 -19.04 -5.024 -26.752 c -5.36 -7.528 -13.728 -12.344 -22.944 -13.2 L 176 159.593 v -55.592 h 172.424 c 69.992 0 130.24 57.456 131.552 125.464 c 0.704 36.44 -14.192 71.552 -40.88 96.344 c -27.056 25.136 -62.336 37.096 -99.416 33.616 C 283.008 354.145 236.312 311.337 226.128 255.329 z M 459.72 360.001 c -5.424 0 -10.512 -2.112 -14.344 -5.936 l -6.96 -6.96 c 3.992 -2.992 7.88 -6.16 11.568 -9.584 c 6.328 -5.88 11.928 -12.376 17.04 -19.192 l 7.04 7.04 c 3.824 3.832 5.936 8.928 5.936 14.352 C 480 350.897 470.896 360.001 459.72 360.001 z" style="stroke: none; stroke-width: 1; stroke-dasharray: none; stroke-linecap: butt; stroke-linejoin: miter; stroke-miterlimit: 10; fill: #333333; fill-rule: nonzero; opacity: 1;" transform=" matrix(1 0 0 1 0 0) " stroke-linecap="round" />
  <path d="M 392 232.001 c 0 -22.056 -17.944 -40 -40 -40 s -40 17.944 -40 40 s 17.944 40 40 40 S 392 254.057 392 232.001 z M 352 256.001 c -13.232 0 -24 -10.768 -24 -24 s 10.768 -24 24 -24 s 24 10.768 24 24 S 365.232 256.001 352 256.001 z" style="stroke: none; stroke-width: 1; stroke-dasharray: none; stroke-linecap: butt; stroke-linejoin: miter; stroke-miterlimit: 10; fill: #333333; fill-rule: nonzero; opacity: 1;" transform=" matrix(1 0 0 1 0 0) " stroke-linecap="round" />
</g>
  <g transform="translate(283.21 61.72) scale(1.03 1)">
   <text font-family="ADAMCG PRO" font-size="40" font-weight="normal" style="stroke: none; stroke-width: 1; stroke-dasharray: none; stroke-linecap: butt; stroke-linejoin: miter; stroke-miterlimit: 10; fill: #000000; fill-rule: nonzero; opacity: 1;" ><tspan x="-139.51" y="8.98" style="stroke: none; stroke-width: 0; stroke-dasharray: none; stroke-linecap: butt; stroke-linejoin: miter; stroke-miterlimit: 4; fill: #000000; fill-rule: ; opacity: 1;">F</tspan><tspan x="-116.21" y="8.98" style="stroke: none; stroke-width: 0; stroke-dasharray: none; stroke-linecap: butt; stroke-linejoin: miter; stroke-miterlimit: 4; fill: #000000; fill-rule: ; opacity: 1;">A</tspan><tspan x="-88.42" y="8.98" style="stroke: none; stroke-width: 0; stroke-dasharray: none; stroke-linecap: butt; stroke-linejoin: miter; stroke-miterlimit: 4; fill: #000000; fill-rule: ; opacity: 1;">I</tspan><tspan x="-77.64" y="8.98" style="stroke: none; stroke-width: 0; stroke-dasharray: none; stroke-linecap: butt; stroke-linejoin: miter; stroke-miterlimit: 4; fill: #000000; fill-rule: ; opacity: 1;">R</tspan><tspan x="-52.01" y="8.98" style="stroke: none; stroke-width: 0; stroke-dasharray: none; stroke-linecap: butt; stroke-linejoin: miter; stroke-miterlimit: 4; fill: #000000; fill-rule: ; opacity: 1;">C</tspan><tspan x="-24.94" y="8.98" style="stroke: none; stroke-width: 0; stroke-dasharray: none; stroke-linecap: butt; stroke-linejoin: miter; stroke-miterlimit: 4; fill: #000000; fill-rule: ; opacity: 1;">O</tspan><tspan x="9" y="8.98" style="stroke: none; stroke-width: 0; stroke-dasharray: none; stroke-linecap: butt; stroke-linejoin: miter; stroke-miterlimit: 4; fill: #000000; fill-rule: ; opacity: 1;">N</tspan><tspan x="38.52" y="8.98" style="stroke: none; stroke-width: 0; stroke-dasharray: none; stroke-linecap: butt; stroke-linejoin: miter; stroke-miterlimit: 4; fill: #000000; fill-rule: ; opacity: 1;">T</tspan><tspan x="61.88" y="8.98" style="stroke: none; stroke-width: 0; stroke-dasharray: none; stroke-linecap: butt; stroke-linejoin: miter; stroke-miterlimit: 4; fill: #000000; fill-rule: ; opacity: 1;">E</tspan><tspan x="85.14" y="8.98" style="stroke: none; stroke-width: 0; stroke-dasharray: none; stroke-linecap: butt; stroke-linejoin: miter; stroke-miterlimit: 4; fill: #000000; fill-rule: ; opacity: 1;">C</tspan><tspan x="112.21" y="8.98" style="stroke: none; stroke-width: 0; stroke-dasharray: none; stroke-linecap: butt; stroke-linejoin: miter; stroke-miterlimit: 4; fill: #000000; fill-rule: ; opacity: 1;">H</tspan></text>
 </g>
  <g transform="translate(283.78 96.98) scale(0.36 0.42)">
   <text font-family="ADAMCG PRO" font-size="40" font-weight="normal" style="stroke: none; stroke-width: 1; stroke-dasharray: none; stroke-linecap: butt; stroke-linejoin: miter; stroke-miterlimit: 10; fill: #000000; fill-rule: nonzero; opacity: 1;" ><tspan x="-398.26" y="8.98" style="stroke: none; stroke-width: 0; stroke-dasharray: none; stroke-linecap: butt; stroke-linejoin: miter; stroke-miterlimit: 4; fill: #000000; fill-rule: ; opacity: 1;">M</tspan><tspan x="-364.16" y="8.98" style="stroke: none; stroke-width: 0; stroke-dasharray: none; stroke-linecap: butt; stroke-linejoin: miter; stroke-miterlimit: 4; fill: #000000; fill-rule: ; opacity: 1;">a</tspan><tspan x="-336.37" y="8.98" style="stroke: none; stroke-width: 0; stroke-dasharray: none; stroke-linecap: butt; stroke-linejoin: miter; stroke-miterlimit: 4; fill: #000000; fill-rule: ; opacity: 1;">s</tspan><tspan x="-315.25" y="8.98" style="stroke: none; stroke-width: 0; stroke-dasharray: none; stroke-linecap: butt; stroke-linejoin: miter; stroke-miterlimit: 4; fill: #000000; fill-rule: ; opacity: 1;">t</tspan><tspan x="-291.89" y="8.98" style="stroke: none; stroke-width: 0; stroke-dasharray: none; stroke-linecap: butt; stroke-linejoin: miter; stroke-miterlimit: 4; fill: #000000; fill-rule: ; opacity: 1;">e</tspan><tspan x="-268.63" y="8.98" style="stroke: none; stroke-width: 0; stroke-dasharray: none; stroke-linecap: butt; stroke-linejoin: miter; stroke-miterlimit: 4; fill: #000000; fill-rule: ; opacity: 1;">r</tspan><tspan x="-243.01" y="8.98" style="stroke: none; stroke-width: 0; stroke-dasharray: none; stroke-linecap: butt; stroke-linejoin: miter; stroke-miterlimit: 4; fill: #000000; fill-rule: ; opacity: 1;"> </tspan><tspan x="-231.02" y="8.98" style="stroke: none; stroke-width: 0; stroke-dasharray: none; stroke-linecap: butt; stroke-linejoin: miter; stroke-miterlimit: 4; fill: #000000; fill-rule: ; opacity: 1;">o</tspan><tspan x="-197.07" y="8.98" style="stroke: none; stroke-width: 0; stroke-dasharray: none; stroke-linecap: butt; stroke-linejoin: miter; stroke-miterlimit: 4; fill: #000000; fill-rule: ; opacity: 1;">f</tspan><tspan x="-175.76" y="8.98" style="stroke: none; stroke-width: 0; stroke-dasharray: none; stroke-linecap: butt; stroke-linejoin: miter; stroke-miterlimit: 4; fill: #000000; fill-rule: ; opacity: 1;"> </tspan><tspan x="-163.77" y="8.98" style="stroke: none; stroke-width: 0; stroke-dasharray: none; stroke-linecap: butt; stroke-linejoin: miter; stroke-miterlimit: 4; fill: #000000; fill-rule: ; opacity: 1;">r</tspan><tspan x="-138.14" y="8.98" style="stroke: none; stroke-width: 0; stroke-dasharray: none; stroke-linecap: butt; stroke-linejoin: miter; stroke-miterlimit: 4; fill: #000000; fill-rule: ; opacity: 1;">e</tspan><tspan x="-114.88" y="8.98" style="stroke: none; stroke-width: 0; stroke-dasharray: none; stroke-linecap: butt; stroke-linejoin: miter; stroke-miterlimit: 4; fill: #000000; fill-rule: ; opacity: 1;">p</tspan><tspan x="-92.46" y="8.98" style="stroke: none; stroke-width: 0; stroke-dasharray: none; stroke-linecap: butt; stroke-linejoin: miter; stroke-miterlimit: 4; fill: #000000; fill-rule: ; opacity: 1;">a</tspan><tspan x="-64.67" y="8.98" style="stroke: none; stroke-width: 0; stroke-dasharray: none; stroke-linecap: butt; stroke-linejoin: miter; stroke-miterlimit: 4; fill: #000000; fill-rule: ; opacity: 1;">i</tspan><tspan x="-53.89" y="8.98" style="stroke: none; stroke-width: 0; stroke-dasharray: none; stroke-linecap: butt; stroke-linejoin: miter; stroke-miterlimit: 4; fill: #000000; fill-rule: ; opacity: 1;">r</tspan><tspan x="-28.26" y="8.98" style="stroke: none; stroke-width: 0; stroke-dasharray: none; stroke-linecap: butt; stroke-linejoin: miter; stroke-miterlimit: 4; fill: #000000; fill-rule: ; opacity: 1;"> </tspan><tspan x="-16.27" y="8.98" style="stroke: none; stroke-width: 0; stroke-dasharray: none; stroke-linecap: butt; stroke-linejoin: miter; stroke-miterlimit: 4; fill: #000000; fill-rule: ; opacity: 1;">a</tspan><tspan x="11.52" y="8.98" style="stroke: none; stroke-width: 0; stroke-dasharray: none; stroke-linecap: butt; stroke-linejoin: miter; stroke-miterlimit: 4; fill: #000000; fill-rule: ; opacity: 1;">n</tspan><tspan x="41.04" y="8.98" style="stroke: none; stroke-width: 0; stroke-dasharray: none; stroke-linecap: butt; stroke-linejoin: miter; stroke-miterlimit: 4; fill: #000000; fill-rule: ; opacity: 1;">d</tspan><tspan x="68.03" y="8.98" style="stroke: none; stroke-width: 0; stroke-dasharray: none; stroke-linecap: butt; stroke-linejoin: miter; stroke-miterlimit: 4; fill: #000000; fill-rule: ; opacity: 1;"> </tspan><tspan x="80.02" y="8.98" style="stroke: none; stroke-width: 0; stroke-dasharray: none; stroke-linecap: butt; stroke-linejoin: miter; stroke-miterlimit: 4; fill: #000000; fill-rule: ; opacity: 1;">r</tspan><tspan x="105.64" y="8.98" style="stroke: none; stroke-width: 0; stroke-dasharray: none; stroke-linecap: butt; stroke-linejoin: miter; stroke-miterlimit: 4; fill: #000000; fill-rule: ; opacity: 1;">e</tspan><tspan x="128.91" y="8.98" style="stroke: none; stroke-width: 0; stroke-dasharray: none; stroke-linecap: butt; stroke-linejoin: miter; stroke-miterlimit: 4; fill: #000000; fill-rule: ; opacity: 1;">h</tspan><tspan x="156.21" y="8.98" style="stroke: none; stroke-width: 0; stroke-dasharray: none; stroke-linecap: butt; stroke-linejoin: miter; stroke-miterlimit: 4; fill: #000000; fill-rule: ; opacity: 1;">a</tspan><tspan x="184" y="8.98" style="stroke: none; stroke-width: 0; stroke-dasharray: none; stroke-linecap: butt; stroke-linejoin: miter; stroke-miterlimit: 4; fill: #000000; fill-rule: ; opacity: 1;">b</tspan><tspan x="207.52" y="8.98" style="stroke: none; stroke-width: 0; stroke-dasharray: none; stroke-linecap: butt; stroke-linejoin: miter; stroke-miterlimit: 4; fill: #000000; fill-rule: ; opacity: 1;">i</tspan><tspan x="218.3" y="8.98" style="stroke: none; stroke-width: 0; stroke-dasharray: none; stroke-linecap: butt; stroke-linejoin: miter; stroke-miterlimit: 4; fill: #000000; fill-rule: ; opacity: 1;">l</tspan><tspan x="238.73" y="8.98" style="stroke: none; stroke-width: 0; stroke-dasharray: none; stroke-linecap: butt; stroke-linejoin: miter; stroke-miterlimit: 4; fill: #000000; fill-rule: ; opacity: 1;">i</tspan><tspan x="249.51" y="8.98" style="stroke: none; stroke-width: 0; stroke-dasharray: none; stroke-linecap: butt; stroke-linejoin: miter; stroke-miterlimit: 4; fill: #000000; fill-rule: ; opacity: 1;">t</tspan><tspan x="272.87" y="8.98" style="stroke: none; stroke-width: 0; stroke-dasharray: none; stroke-linecap: butt; stroke-linejoin: miter; stroke-miterlimit: 4; fill: #000000; fill-rule: ; opacity: 1;">a</tspan><tspan x="300.66" y="8.98" style="stroke: none; stroke-width: 0; stroke-dasharray: none; stroke-linecap: butt; stroke-linejoin: miter; stroke-miterlimit: 4; fill: #000000; fill-rule: ; opacity: 1;">t</tspan><tspan x="324.02" y="8.98" style="stroke: none; stroke-width: 0; stroke-dasharray: none; stroke-linecap: butt; stroke-linejoin: miter; stroke-miterlimit: 4; fill: #000000; fill-rule: ; opacity: 1;">i</tspan><tspan x="334.8" y="8.98" style="stroke: none; stroke-width: 0; stroke-dasharray: none; stroke-linecap: butt; stroke-linejoin: miter; stroke-miterlimit: 4; fill: #000000; fill-rule: ; opacity: 1;">o</tspan><tspan x="368.75" y="8.98" style="stroke: none; stroke-width: 0; stroke-dasharray: none; stroke-linecap: butt; stroke-linejoin: miter; stroke-miterlimit: 4; fill: #000000; fill-rule: ; opacity: 1;">n</tspan></text>
 </g>
</svg>